<?xml version="1.0" encoding="UTF-8" standalone="no"?>
<svg
   xmlns:dc="http://purl.org/dc/elements/1.1/"
   xmlns:cc="http://creativecommons.org/ns#"
   xmlns:rdf="http://www.w3.org/1999/02/22-rdf-syntax-ns#"
   xmlns:svg="http://www.w3.org/2000/svg"
   xmlns="http://www.w3.org/2000/svg"
   xmlns:sodipodi="http://sodipodi.sourceforge.net/DTD/sodipodi-0.dtd"
   xmlns:inkscape="http://www.inkscape.org/namespaces/inkscape"
   version="1.0"
   width="627.000000pt"
   height="166.000000pt"
   viewBox="0 0 627.000000 166.000000"
   preserveAspectRatio="xMidYMid meet"
   id="svg76"
   sodipodi:docname="logo.svg"
   inkscape:version="0.92.3 (2405546, 2018-03-11)">
  <defs
     id="defs80" />
  <sodipodi:namedview
     pagecolor="#ffffff"
     bordercolor="#666666"
     borderopacity="1"
     objecttolerance="10"
     gridtolerance="10"
     guidetolerance="10"
     inkscape:pageopacity="0"
     inkscape:pageshadow="2"
     inkscape:window-width="1366"
     inkscape:window-height="705"
     id="namedview78"
     showgrid="false"
     inkscape:zoom="0.41746411"
     inkscape:cx="418"
     inkscape:cy="110.66667"
     inkscape:window-x="-8"
     inkscape:window-y="-8"
     inkscape:window-maximized="1"
     inkscape:current-layer="g74" />
  <metadata
     id="metadata66">
Created by potrace 1.15, written by Peter Selinger 2001-2017
<rdf:RDF>
  <cc:Work
     rdf:about="">
    <dc:format>image/svg+xml</dc:format>
    <dc:type
       rdf:resource="http://purl.org/dc/dcmitype/StillImage" />
    <dc:title></dc:title>
  </cc:Work>
</rdf:RDF>
</metadata>
  <g
     transform="translate(0.000000,166.000000) scale(0.100000,-0.100000)"
     fill="#000000"
     stroke="none"
     id="g74">
    <path
       d="M0 1646 c0 -15 12 -20 73 -31 51 -8 111 -64 134 -123 17 -44 18 -93 18 -662 0 -572 -1 -618 -18 -662 -22 -58 -86 -115 -136 -124 -59 -10 -71 -15 -71 -30 0 -12 96 -14 673 -14 l674 0 6 137 c12 237 9 353 -8 353 -8 0 -18 -16 -25 -40 -5 -22 -15 -59 -21 -82 -17 -65 -66 -155 -111 -204 -85 -92 -253 -139 -418 -116 -124 18 -196 65 -239 158 -32 68 -41 153 -41 407 l0 237 55 0 c178 0 264 -74 296 -252 10 -55 16 -68 31 -68 17 0 18 17 18 330 0 285 -2 330 -15 330 -8 0 -17 -10 -19 -22 -29 -155 -55 -206 -119 -240 -33 -17 -64 -23 -144 -26 l-103 -4 0 362 0 363 198 -5 c164 -5 208 -9 264 -27 119 -38 209 -147 238 -286 9 -45 15 -55 31 -55 15 0 19 5 15 18 -2 9 -8 101 -11 205 l-7 187 -609 0 c-522 0 -609 -2 -609 -14z"
       id="path68" />
    <path
       d="M2115 1648 c-129 -362 -442 -1229 -470 -1298 -79 -202 -150 -288 -257 -314 -16 -3 -28 -13 -28 -21 0 -13 36 -15 255 -15 217 0 255 2 255 15 0 8 -17 19 -42 26 -60 16 -97 45 -119 93 -34 76 -25 131 63 378 l53 148 245 0 245 0 73 -198 c80 -215 90 -261 72 -316 -19 -59 -65 -89 -172 -111 -16 -3 -28 -12 -28 -20 0 -13 77 -15 605 -15 524 0 605 2 605 15 0 8 -17 19 -42 26 -60 16 -97 45 -119 93 -34 76 -25 131 63 378 l53 148 245 0 245 0 74 -199 c40 -109 76 -219 78 -245 12 -100 -40 -152 -179 -181 -16 -3 -28 -12 -28 -20 0 -13 51 -15 376 -15 345 0 375 1 372 17 -2 11 -20 20 -59 28 -95 19 -134 53 -190 170 -29 60 -480 1221 -551 1418 -9 25 -14 28 -50 25 l-40 -3 -217 -605 c-291 -809 -300 -831 -378 -928 -82 -101 -205 -108 -297 -15 -54 54 -49 40 -568 1396 l-61 157 -39 0 c-22 0 -41 -5 -43 -12z m58 -613 c58 -154 108 -288 112 -297 7 -17 -7 -18 -214 -18 -122 0 -221 2 -221 5 0 4 176 505 202 574 5 13 10 22 12 20 3 -2 52 -130 109 -284z m1600 0 c58 -154 108 -288 112 -297 7 -17 -7 -18 -214 -18 -122 0 -221 2 -221 4 0 4 186 534 205 585 3 8 7 12 9 10 3 -2 52 -130 109 -284z"
       id="path70" />
    <path
       d="M4630 1646 c0 -10 14 -17 38 -21 94 -16 160 -68 184 -147 19 -62 19 -1234 0 -1296 -24 -79 -90 -131 -184 -147 -24 -4 -38 -11 -38 -20 0 -13 40 -15 265 -15 223 0 265 2 265 14 0 10 -19 19 -54 26 -85 17 -137 64 -161 145 -13 43 -15 137 -13 638 l3 588 520 -706 c503 -683 520 -705 552 -705 l32 0 3 728 c3 684 4 730 22 770 26 60 86 109 152 122 35 7 54 16 54 26 0 12 -41 14 -260 14 -219 0 -260 -2 -260 -14 0 -15 12 -20 73 -31 48 -8 104 -57 131 -115 20 -43 21 -62 24 -560 2 -283 -1 -511 -5 -507 -4 5 -206 281 -448 615 l-441 607 -227 3 c-195 2 -227 0 -227 -12z"
       id="path72"
       style="fill:#0000ff" />
    <path
       style="fill:#0000ff;stroke-width:1"
       d="m 196.44583,219.67372 -12.91348,-1.00805 8.05788,-4.05509 c 17.66991,-8.89229 21.09779,-16.4266 71.9105,-158.055285 17.0897,-47.6335803 20.67368,-55.6867773 24.51924,-55.0945557 3.55344,0.5472355 11.93274,19.9026627 39.70692,91.7193947 43.60736,112.757146 43.48884,112.493846 53.34052,118.500226 13.06268,7.96404 22.53079,6.49424 34.24972,-5.31685 11.51434,-11.60486 14.61865,-19.05198 55.71579,-133.659558 22.06398,-61.529876 26.42201,-71.78629645 30.26004,-71.215933 3.4327,0.5101289 8.36239,10.773763 21.02959,43.783805 39.83063,103.796576 60.34471,154.254676 65.14691,160.240736 2.83598,3.53511 9.31597,7.84983 14.39997,9.58826 l 9.24362,3.16079 -14.86257,1.68151 c -8.17442,0.92483 -29.04209,0.90755 -46.37258,-0.0384 -27.98598,-1.52757 -30.60527,-2.02541 -23.42046,-4.45145 9.4205,-3.18093 17.04535,-11.62375 17.10212,-18.93678 0.0216,-2.81837 -4.50633,-18.32903 -10.06271,-34.46815 L 523.39438,132.70449 H 489.33993 455.2855 l -8.582,25.75521 c -4.7201,14.16536 -8.58201,29.5556 -8.58201,34.20053 0,10.31239 5.45862,18.59783 14.85577,22.54903 6.07166,2.55295 0.9379,3.1283 -36.83742,4.12845 -53.96081,1.42869 -114.58227,-0.67202 -103.208,-3.57645 8.78947,-2.2444 17.37644,-11.75071 17.43574,-19.30245 0.0219,-2.78665 -4.50634,-18.27137 -10.0627,-34.41048 l -10.10249,-29.34384 h -34.05443 -34.05444 l -8.582,25.75521 c -12.10679,36.33334 -11.3624,46.35151 4.1468,55.80814 l 7.63222,4.6537 -7.45077,0.009 c -4.09792,0.005 -12.18245,0.40098 -17.96561,0.88012 -5.78317,0.47915 -16.32591,0.41754 -23.42833,-0.13689 z m 109.92781,-95.17441 c 0,-2.4674 -29.2199,-77.017645 -30.82557,-78.646873 -1.50633,-1.528424 -29.17898,72.547103 -29.08989,77.869243 0.0165,0.98811 13.50428,1.79656 29.97277,1.79656 16.46848,0 29.94269,-0.45852 29.94269,-1.01893 z m 212.59008,-1.97534 C 496.55676,62.321656 489.45091,44.074117 488.41424,44.074117 c -1.25831,0 -28.76678,76.220663 -28.74529,79.647563 0.007,0.98811 13.60081,1.79656 30.21026,1.79656 23.1566,0 29.93907,-0.69826 29.08451,-2.99427 z"
       id="path3785"
       inkscape:connector-curvature="0"
       transform="matrix(7.5000001,0,0,-7.5000001,0,1660)" />
    <path
       style="fill:#0000ff;stroke-width:1"
       d="M 38.087106,218.93945 C 18.983668,218.17017 5.2778968,217.3165 7.6298374,217.0424 15.114054,216.17017 24.261566,208.63382 27.634548,200.56114 32.454562,189.02522 32.382453,29.93338 27.552977,20.594205 23.25437,12.281616 17.157393,7.017329 8.1444126,3.83635 2.8661515,1.9734773 22.264002,1.4134914 81.204585,1.7272159 L 161.451,2.1543457 161.93498,28.503916 c 0.45852,24.963571 0.31707,25.823417 -2.68909,16.346734 C 154.57686,30.131891 146.72038,18.63417 137.39292,12.869483 129.34313,7.8944384 100.71232,3.5833225 74.617192,3.4169575 L 64.436676,3.3520535 V 52.728386 102.10472 l 16.780377,-0.94818 C 101.32911,100.02011 106.75813,95.85273 112.709,76.982943 l 3.95713,-12.547795 v 43.117482 43.11748 L 112.709,138.19952 c -2.17643,-6.85883 -6.11301,-15.26988 -8.74797,-18.69123 -5.370556,-6.97339 -19.871012,-12.8896 -31.980783,-13.04823 l -8.02663,-0.10514 0.910998,40.12321 c 0.708154,31.18928 1.777995,41.72331 4.804762,47.30945 9.257781,17.08596 24.701142,24.00068 49.621003,22.21768 30.29807,-2.16782 46.29032,-15.85748 56.58403,-48.437 2.8462,-9.00818 3.08571,-7.41208 3.30538,22.02735 l 0.23683,31.73925 -53.298,-0.49836 c -29.313892,-0.2741 -68.928076,-1.12778 -88.031514,-1.89705 z"
       id="path3787"
       inkscape:connector-curvature="0"
       transform="matrix(7.5000001,0,0,-7.5000001,0,1660)" />
  </g>
</svg>
